<?xml version="1.0" encoding="utf-8"?>
<!-- Generator: Adobe Illustrator 26.0.1, SVG Export Plug-In . SVG Version: 6.00 Build 0)  -->
<svg version="1.1" id="Layer_1" xmlns="http://www.w3.org/2000/svg" xmlns:xlink="http://www.w3.org/1999/xlink" x="0px" y="0px"
	 viewBox="0 0 35.9 32" style="enable-background:new 0 0 35.9 32;" xml:space="preserve">
<style type="text/css">
	.st0{fill:#0F497E;}
	.st1{fill:#085097;}
	
		.st2{clip-path:url(#SVGID_00000080171180419836230950000015681145063229103292_);fill:url(#SVGID_00000052811583635553270390000011487693412724900521_);}
	.st3{fill:#F06724;}
	.st4{clip-path:url(#SVGID_00000152944971484197551100000011121158305666590109_);fill:#F06724;}
	.st5{clip-path:url(#SVGID_00000152944971484197551100000011121158305666590109_);fill:#085097;}
	.st6{clip-path:url(#SVGID_00000005983731065786809850000012565890024347823011_);fill:#FFFFFF;}
	
		.st7{clip-path:url(#SVGID_00000005983731065786809850000012565890024347823011_);fill:none;stroke:#085097;stroke-width:0.1562;stroke-miterlimit:10;}
	
		.st8{clip-path:url(#SVGID_00000005983731065786809850000012565890024347823011_);fill:none;stroke:#F06724;stroke-width:0.1562;stroke-miterlimit:10;}
</style>
<g>
	<g>
		<path class="st0" d="M24.3,5.5l-3.5,3.5l4.1,4.1l3.5-3.5L24.3,5.5z M24.8,10.8l-1.2-1.2c-0.3-0.3-0.3-0.8,0-1.1
			c0,0,0.1-0.1,0.2-0.1c0.1,0,0.1,0,0.2,0.1l1.2,1.2c0.3,0.3,0.3,0.8,0,1.1C25,10.9,24.9,10.9,24.8,10.8"/>
		<path class="st1" d="M28.9,15.4v5.3c0,5.7-4.7,10.4-10.4,10.4h-3.6v-5.8h4.5c2.1,0,3.8-1.7,3.8-3.8v-0.4L28.9,15.4z"/>
		<polygon class="st1" points="9.1,30.3 9.1,31.1 8.2,31.1 		"/>
		<polygon class="st0" points="14.8,25.4 14.8,31.1 9.1,31.1 9.1,30.3 14,25.4 		"/>
		<path class="st1" d="M9.1,0.5v5.8H8.5v13.8l-5.8,5.8V2.3c0-1,0.8-1.8,1.8-1.8H9.1z"/>
		<rect x="9.1" y="0.5" class="st0" width="5" height="5.8"/>
		<path class="st1" d="M23.7,4.9l-4.4-4.4h-5.2v5.8h2.2c0.4,0,0.8,0.2,1,0.4L19.6,9L23.7,4.9z"/>
	</g>
	<g>
		<defs>
			<path id="SVGID_1_" d="M2.8,27.1v1.4c1.4,0.1,2.5,1.2,2.7,2.6h1.5l17.4-17.4l-4.1-4.1L2.8,27.1z"/>
		</defs>
		<clipPath id="SVGID_00000140707499581448097200000006768466440123264906_">
			<use xlink:href="#SVGID_1_"  style="overflow:visible;"/>
		</clipPath>
		
			<linearGradient id="SVGID_00000026147820341735529410000010467296879404015488_" gradientUnits="userSpaceOnUse" x1="-262.0892" y1="-280.4973" x2="-262.0013" y2="-280.4973" gradientTransform="matrix(46.6308 44.4918 44.4918 -46.6308 24713.0547 -1400.2875)">
			<stop  offset="0" style="stop-color:#D0D2D3"/>
			<stop  offset="0.3406" style="stop-color:#DEDFDF"/>
			<stop  offset="0.7207" style="stop-color:#F2F2F2"/>
			<stop  offset="0.8527" style="stop-color:#E4E5E6"/>
			<stop  offset="1" style="stop-color:#D0D2D3"/>
		</linearGradient>
		
			<polygon style="clip-path:url(#SVGID_00000140707499581448097200000006768466440123264906_);fill:url(#SVGID_00000026147820341735529410000010467296879404015488_);" points="
			13,-1.1 35.1,19.9 14.1,41.9 -8,20.9 		"/>
	</g>
	<g>
		<path class="st3" d="M33.7,3.1c0,0.8-0.3,1.5-0.8,2c-0.5,0.5-1.2,0.8-2,0.8C29.3,6,28,4.7,28,3.1c0-0.8,0.3-1.5,0.8-2l0,0
			c0.5-0.5,1.2-0.8,2-0.8C32.4,0.2,33.7,1.5,33.7,3.1"/>
		<path class="st3" d="M5.4,31.1l-1.3,0c-0.3-0.6-0.8-1.1-1.4-1.3l0-1.2C4.2,28.6,5.3,29.7,5.4,31.1"/>
		<path class="st0" d="M4.2,31.1L4.2,31.1l-2,0.6l0.6-1.8v-0.2C3.4,30,3.9,30.5,4.2,31.1"/>
		<polygon class="st0" points="28.9,10.5 28.9,15.4 23.1,21.2 23.1,16.2 		"/>
	</g>
	<g>
		<defs>
			<path id="SVGID_00000137823105704211696980000007070977542302397075_" d="M2.8,27.1v1.4c1.4,0.1,2.5,1.2,2.7,2.6h1.5l17.4-17.4
				l-4.1-4.1L2.8,27.1z"/>
		</defs>
		<clipPath id="SVGID_00000123437008346461143990000011335747251152140197_">
			<use xlink:href="#SVGID_00000137823105704211696980000007070977542302397075_"  style="overflow:visible;"/>
		</clipPath>
		<path style="clip-path:url(#SVGID_00000123437008346461143990000011335747251152140197_);fill:#F06724;" d="M5.9,31.6L5.9,31.6
			c-0.1-0.1-0.1-0.3,0-0.4L9,28.1c0.1-0.1,0.3-0.1,0.4,0c0.1,0.1,0.1,0.3,0,0.4l-3.1,3.1C6.2,31.7,6,31.7,5.9,31.6"/>
		<path style="clip-path:url(#SVGID_00000123437008346461143990000011335747251152140197_);fill:#085097;" d="M9.9,27.6L9.9,27.6
			c-0.1-0.1-0.1-0.3,0-0.4l4.9-4.9c0.1-0.1,0.3-0.1,0.4,0c0.1,0.1,0.1,0.3,0,0.4l-4.9,4.9C10.2,27.7,10,27.7,9.9,27.6"/>
		<path style="clip-path:url(#SVGID_00000123437008346461143990000011335747251152140197_);fill:#F06724;" d="M15.7,21.8L15.7,21.8
			c-0.1-0.1-0.1-0.3,0-0.4l2-2c0.1-0.1,0.3-0.1,0.4,0c0.1,0.1,0.1,0.3,0,0.4l-2,2C16,21.9,15.8,21.9,15.7,21.8"/>
		<path style="clip-path:url(#SVGID_00000123437008346461143990000011335747251152140197_);fill:#085097;" d="M18.7,18.8L18.7,18.8
			c-0.1-0.1-0.1-0.3,0-0.4l3.4-3.4c0.1-0.1,0.3-0.1,0.4,0c0.1,0.1,0.1,0.3,0,0.4L19,18.8C18.9,18.9,18.8,18.9,18.7,18.8"/>
		<path style="clip-path:url(#SVGID_00000123437008346461143990000011335747251152140197_);fill:#085097;" d="M5.1,30.8L5.1,30.8
			c-0.1-0.1-0.1-0.3,0-0.4l5.6-5.6c0.1-0.1,0.3-0.1,0.4,0c0.1,0.1,0.1,0.3,0,0.4l-5.6,5.6C5.4,30.9,5.2,30.9,5.1,30.8"/>
		<path style="clip-path:url(#SVGID_00000123437008346461143990000011335747251152140197_);fill:#F06724;" d="M11.6,24.3L11.6,24.3
			c-0.1-0.1-0.1-0.3,0-0.4l1.6-1.6c0.1-0.1,0.3-0.1,0.4,0c0.1,0.1,0.1,0.3,0,0.4L12,24.3C11.9,24.4,11.7,24.4,11.6,24.3"/>
		<path style="clip-path:url(#SVGID_00000123437008346461143990000011335747251152140197_);fill:#085097;" d="M14.2,21.8L14.2,21.8
			c-0.1-0.1-0.1-0.3,0-0.4l1.8-1.8c0.1-0.1,0.3-0.1,0.4,0c0.1,0.1,0.1,0.3,0,0.4l-1.8,1.8C14.4,21.9,14.3,21.9,14.2,21.8"/>
		<path style="clip-path:url(#SVGID_00000123437008346461143990000011335747251152140197_);fill:#085097;" d="M16.9,19.1L16.9,19.1
			c-0.1-0.1-0.1-0.3,0-0.4l0.2-0.2c0.1-0.1,0.2-0.1,0.3,0l0,0c0.1,0.1,0.1,0.2,0,0.3l-0.2,0.2C17.1,19.2,17,19.2,16.9,19.1"/>
		<path style="clip-path:url(#SVGID_00000123437008346461143990000011335747251152140197_);fill:#F06724;" d="M4.3,30L4.3,30
			c-0.1-0.1-0.1-0.3,0-0.4l1.3-1.3c0.1-0.1,0.3-0.1,0.4,0c0.1,0.1,0.1,0.3,0,0.4L4.7,30C4.6,30.1,4.4,30.1,4.3,30"/>
		<path style="clip-path:url(#SVGID_00000123437008346461143990000011335747251152140197_);fill:#085097;" d="M6.5,27.9L6.5,27.9
			c-0.1-0.1-0.1-0.3,0-0.4l3.3-3.3c0.1-0.1,0.3-0.1,0.4,0c0.1,0.1,0.1,0.3,0,0.4l-3.3,3.3C6.8,28,6.6,28,6.5,27.9"/>
		<path style="clip-path:url(#SVGID_00000123437008346461143990000011335747251152140197_);fill:#F06724;" d="M10.8,23.6L10.8,23.6
			c-0.1-0.1-0.1-0.3,0-0.4l8.1-8.1c0.1-0.1,0.3-0.1,0.4,0c0.1,0.1,0.1,0.3,0,0.4l-8.1,8.1C11,23.7,10.9,23.7,10.8,23.6"/>
		<path style="clip-path:url(#SVGID_00000123437008346461143990000011335747251152140197_);fill:#085097;" d="M3.7,29.4L3.7,29.4
			c-0.1-0.1-0.1-0.3,0-0.4l4-4c0.1-0.1,0.3-0.1,0.4,0c0.1,0.1,0.1,0.3,0,0.4l-4,4C3.9,29.5,3.8,29.5,3.7,29.4"/>
		<path style="clip-path:url(#SVGID_00000123437008346461143990000011335747251152140197_);fill:#F06724;" d="M8.6,24.5L8.6,24.5
			c-0.1-0.1-0.1-0.3,0-0.4l1.4-1.4c0.1-0.1,0.3-0.1,0.4,0c0.1,0.1,0.1,0.3,0,0.4l-1.4,1.4C8.8,24.6,8.7,24.6,8.6,24.5"/>
		<path style="clip-path:url(#SVGID_00000123437008346461143990000011335747251152140197_);fill:#085097;" d="M10.9,22.2L10.9,22.2
			c-0.1-0.1-0.1-0.3,0-0.4l2.4-2.4c0.1-0.1,0.3-0.1,0.4,0c0.1,0.1,0.1,0.3,0,0.4l-2.4,2.4C11.1,22.3,11,22.3,10.9,22.2"/>
		<path style="clip-path:url(#SVGID_00000123437008346461143990000011335747251152140197_);fill:#085097;" d="M14.1,18.9L14.1,18.9
			c-0.1-0.1-0.1-0.3,0-0.4l2.5-2.5c0.1-0.1,0.3-0.1,0.4,0c0.1,0.1,0.1,0.3,0,0.4l-2.5,2.5C14.4,19,14.2,19,14.1,18.9"/>
		<path style="clip-path:url(#SVGID_00000123437008346461143990000011335747251152140197_);fill:#F06724;" d="M2.9,28.6L2.9,28.6
			c-0.1-0.1-0.1-0.3,0-0.4l2.5-2.5c0.1-0.1,0.3-0.1,0.4,0c0.1,0.1,0.1,0.3,0,0.4l-2.5,2.5C3.2,28.7,3,28.7,2.9,28.6"/>
		<path style="clip-path:url(#SVGID_00000123437008346461143990000011335747251152140197_);fill:#085097;" d="M6.3,25.3L6.3,25.3
			c-0.1-0.1-0.1-0.3,0-0.4l4.7-4.7c0.1-0.1,0.3-0.1,0.4,0s0.1,0.3,0,0.4l-4.7,4.7C6.6,25.4,6.4,25.4,6.3,25.3"/>
		<path style="clip-path:url(#SVGID_00000123437008346461143990000011335747251152140197_);fill:#085097;" d="M11.9,19.7L11.9,19.7
			c-0.1-0.1-0.1-0.3,0-0.4l1.2-1.2c0.1-0.1,0.3-0.1,0.4,0c0.1,0.1,0.1,0.3,0,0.4l-1.2,1.2C12.1,19.8,12,19.8,11.9,19.7"/>
		<path style="clip-path:url(#SVGID_00000123437008346461143990000011335747251152140197_);fill:#F06724;" d="M14,17.5L14,17.5
			c-0.1-0.1-0.1-0.3,0-0.4l2.5-2.5c0.1-0.1,0.3-0.1,0.4,0c0.1,0.1,0.1,0.3,0,0.4l-2.5,2.5C14.3,17.6,14.1,17.6,14,17.5"/>
		<path style="clip-path:url(#SVGID_00000123437008346461143990000011335747251152140197_);fill:#085097;" d="M17.4,14.1L17.4,14.1
			c-0.1-0.1-0.1-0.3,0-0.4l3.1-3.1c0.1-0.1,0.3-0.1,0.4,0c0.1,0.1,0.1,0.3,0,0.4l-3.1,3.1C17.7,14.2,17.5,14.2,17.4,14.1"/>
		<path style="clip-path:url(#SVGID_00000123437008346461143990000011335747251152140197_);fill:#085097;" d="M2.3,28L2.3,28
			c-0.1-0.1-0.1-0.3,0-0.4l7-7c0.1-0.1,0.3-0.1,0.4,0c0.1,0.1,0.1,0.3,0,0.4l-7,7C2.5,28.1,2.4,28.1,2.3,28"/>
		<path style="clip-path:url(#SVGID_00000123437008346461143990000011335747251152140197_);fill:#F06724;" d="M10.2,20.1L10.2,20.1
			c-0.1-0.1-0.1-0.3,0-0.4l2.8-2.8c0.1-0.1,0.3-0.1,0.4,0c0.1,0.1,0.1,0.3,0,0.4l-2.8,2.8C10.4,20.2,10.3,20.2,10.2,20.1"/>
		<path style="clip-path:url(#SVGID_00000123437008346461143990000011335747251152140197_);fill:#085097;" d="M13.8,16.4L13.8,16.4
			c-0.1-0.1-0.1-0.3,0-0.4l3.7-3.7c0.1-0.1,0.3-0.1,0.4,0c0.1,0.1,0.1,0.3,0,0.4l-3.7,3.7C14.1,16.5,13.9,16.5,13.8,16.4"/>
	</g>
	<g>
		<defs>
			<path id="SVGID_00000117664552781680828080000008407674360669275296_" d="M23.6,8.5c-0.3,0.3-0.3,0.8,0,1.1l1.2,1.2
				c0.1,0.1,0.2,0.1,0.3,0c0.3-0.3,0.3-0.8,0-1.1l-1.2-1.2c0,0-0.1-0.1-0.2-0.1C23.7,8.4,23.6,8.4,23.6,8.5"/>
		</defs>
		<clipPath id="SVGID_00000131354355948537928850000001952664097424593582_">
			<use xlink:href="#SVGID_00000117664552781680828080000008407674360669275296_"  style="overflow:visible;"/>
		</clipPath>
		<path style="clip-path:url(#SVGID_00000131354355948537928850000001952664097424593582_);fill:#FFFFFF;" d="M25.2,10.8
			c-0.1,0.1-0.3,0.1-0.4,0l-1.4-1.2c-0.3-0.3-0.3-0.8,0-1.1c0.1,0,0.1-0.1,0.2-0.1c0.1,0,0.1,0,0.2,0.1l1.4,1.2
			C25.6,10,25.6,10.5,25.2,10.8"/>
		
			<line style="clip-path:url(#SVGID_00000131354355948537928850000001952664097424593582_);fill:#FFFFFF;" x1="25.5" y1="9.3" x2="25.5" y2="11.1"/>
		
			<line style="clip-path:url(#SVGID_00000131354355948537928850000001952664097424593582_);fill:none;stroke:#085097;stroke-width:0.1562;stroke-miterlimit:10;" x1="25.5" y1="9.3" x2="25.5" y2="11.1"/>
		
			<line style="clip-path:url(#SVGID_00000131354355948537928850000001952664097424593582_);fill:#FFFFFF;" x1="25.2" y1="9.3" x2="25.2" y2="11.1"/>
		
			<line style="clip-path:url(#SVGID_00000131354355948537928850000001952664097424593582_);fill:none;stroke:#085097;stroke-width:0.1562;stroke-miterlimit:10;" x1="25.2" y1="9.3" x2="25.2" y2="11.1"/>
		
			<line style="clip-path:url(#SVGID_00000131354355948537928850000001952664097424593582_);fill:#FFFFFF;" x1="24.9" y1="9.2" x2="24.9" y2="11"/>
		
			<line style="clip-path:url(#SVGID_00000131354355948537928850000001952664097424593582_);fill:none;stroke:#F06724;stroke-width:0.1562;stroke-miterlimit:10;" x1="24.9" y1="9.2" x2="24.9" y2="11"/>
		
			<line style="clip-path:url(#SVGID_00000131354355948537928850000001952664097424593582_);fill:#FFFFFF;" x1="24.6" y1="9" x2="24.6" y2="10.8"/>
		
			<line style="clip-path:url(#SVGID_00000131354355948537928850000001952664097424593582_);fill:none;stroke:#085097;stroke-width:0.1562;stroke-miterlimit:10;" x1="24.6" y1="9" x2="24.6" y2="10.8"/>
		
			<line style="clip-path:url(#SVGID_00000131354355948537928850000001952664097424593582_);fill:#FFFFFF;" x1="24.3" y1="8.9" x2="24.3" y2="10.7"/>
		
			<line style="clip-path:url(#SVGID_00000131354355948537928850000001952664097424593582_);fill:none;stroke:#F06724;stroke-width:0.1562;stroke-miterlimit:10;" x1="24.3" y1="8.9" x2="24.3" y2="10.7"/>
		
			<line style="clip-path:url(#SVGID_00000131354355948537928850000001952664097424593582_);fill:#FFFFFF;" x1="24" y1="8.5" x2="24" y2="10.3"/>
		
			<line style="clip-path:url(#SVGID_00000131354355948537928850000001952664097424593582_);fill:none;stroke:#085097;stroke-width:0.1562;stroke-miterlimit:10;" x1="24" y1="8.5" x2="24" y2="10.3"/>
		
			<line style="clip-path:url(#SVGID_00000131354355948537928850000001952664097424593582_);fill:#FFFFFF;" x1="23.8" y1="8.1" x2="23.8" y2="9.9"/>
		
			<line style="clip-path:url(#SVGID_00000131354355948537928850000001952664097424593582_);fill:none;stroke:#F06724;stroke-width:0.1562;stroke-miterlimit:10;" x1="23.8" y1="8.1" x2="23.8" y2="9.9"/>
		
			<line style="clip-path:url(#SVGID_00000131354355948537928850000001952664097424593582_);fill:#FFFFFF;" x1="23.5" y1="8.3" x2="23.5" y2="10.1"/>
		
			<line style="clip-path:url(#SVGID_00000131354355948537928850000001952664097424593582_);fill:none;stroke:#085097;stroke-width:0.1562;stroke-miterlimit:10;" x1="23.5" y1="8.3" x2="23.5" y2="10.1"/>
		
			<line style="clip-path:url(#SVGID_00000131354355948537928850000001952664097424593582_);fill:#FFFFFF;" x1="23.2" y1="8.4" x2="23.2" y2="10.2"/>
		
			<line style="clip-path:url(#SVGID_00000131354355948537928850000001952664097424593582_);fill:none;stroke:#085097;stroke-width:0.1562;stroke-miterlimit:10;" x1="23.2" y1="8.4" x2="23.2" y2="10.2"/>
	</g>
</g>
</svg>
