<?xml version="1.0" encoding="utf-8"?>
<!-- Generator: Adobe Illustrator 26.0.1, SVG Export Plug-In . SVG Version: 6.00 Build 0)  -->
<svg version="1.1" id="Layer_1" xmlns="http://www.w3.org/2000/svg" xmlns:xlink="http://www.w3.org/1999/xlink" x="0px" y="0px"
	 viewBox="0 0 31.9 32" style="enable-background:new 0 0 31.9 32;" xml:space="preserve">
<style type="text/css">
	.st0{fill:#0F497E;}
	.st1{fill:#085097;}
	
		.st2{clip-path:url(#SVGID_00000060750619226165534450000002783242083523830426_);fill:url(#SVGID_00000108310741570462641850000011153930725274510503_);}
	.st3{fill:#F06724;}
	.st4{clip-path:url(#SVGID_00000032618696566385767210000003940903383844301759_);fill:#F06724;}
	.st5{clip-path:url(#SVGID_00000032618696566385767210000003940903383844301759_);fill:#085097;}
	.st6{clip-path:url(#SVGID_00000085217194477802564850000008442226104693235628_);fill:#FFFFFF;}
	
		.st7{clip-path:url(#SVGID_00000085217194477802564850000008442226104693235628_);fill:none;stroke:#085097;stroke-width:0.1562;stroke-miterlimit:10;}
	
		.st8{clip-path:url(#SVGID_00000085217194477802564850000008442226104693235628_);fill:none;stroke:#F06724;stroke-width:0.1562;stroke-miterlimit:10;}
</style>
<g>
	<g>
		<path class="st0" d="M22.4,5.4L18.8,9l4.1,4.1l3.6-3.6L22.4,5.4z M22.9,10.7l-1.3-1.3c-0.3-0.3-0.3-0.8,0-1.1c0,0,0.1-0.1,0.2-0.1
			c0.1,0,0.1,0,0.2,0.1l1.3,1.3c0.3,0.3,0.3,0.8,0,1.1C23.1,10.8,22.9,10.8,22.9,10.7"/>
		<path class="st1" d="M27,15.4v5.4c0,5.8-4.7,10.5-10.5,10.5h-3.7v-5.8h4.5c2.1,0,3.8-1.7,3.8-3.8v-0.4L27,15.4z"/>
		<polygon class="st1" points="7,30.4 7,31.3 6.1,31.3 		"/>
		<polygon class="st0" points="12.8,25.5 12.8,31.3 7,31.3 7,30.4 11.9,25.5 		"/>
		<path class="st1" d="M7,0.3v5.8H6.4v14l-5.8,5.8V2.1c0-1,0.8-1.8,1.8-1.8H7z"/>
		<rect x="7" y="0.3" class="st0" width="5" height="5.8"/>
		<path class="st1" d="M21.7,4.8l-4.5-4.5H12v5.8h2.2c0.4,0,0.8,0.2,1.1,0.4l2.3,2.3L21.7,4.8z"/>
	</g>
	<g>
		<defs>
			<path id="SVGID_1_" d="M0.6,27.2v1.4c1.4,0.1,2.6,1.2,2.7,2.6h1.5l17.6-17.6l-4.1-4.1L0.6,27.2z"/>
		</defs>
		<clipPath id="SVGID_00000096022552398793599160000006038894250757895089_">
			<use xlink:href="#SVGID_1_"  style="overflow:visible;"/>
		</clipPath>
		
			<linearGradient id="SVGID_00000088124425866618376240000012994840973284467604_" gradientUnits="userSpaceOnUse" x1="-264.0899" y1="-280.4987" x2="-264.001" y2="-280.4987" gradientTransform="matrix(46.6308 44.4918 44.4918 -46.6308 24804.3164 -1311.304)">
			<stop  offset="0" style="stop-color:#D0D2D3"/>
			<stop  offset="0.3406" style="stop-color:#DEDFDF"/>
			<stop  offset="0.7207" style="stop-color:#F2F2F2"/>
			<stop  offset="0.8527" style="stop-color:#E4E5E6"/>
			<stop  offset="1" style="stop-color:#D0D2D3"/>
		</linearGradient>
		
			<polygon style="clip-path:url(#SVGID_00000096022552398793599160000006038894250757895089_);fill:url(#SVGID_00000088124425866618376240000012994840973284467604_);" points="
			11,-1.3 33.2,19.9 12,42.2 -10.3,20.9 		"/>
	</g>
	<g>
		<path class="st3" d="M31.9,3c0,0.8-0.3,1.5-0.9,2.1c-0.5,0.5-1.3,0.9-2.1,0.9c-1.6,0-2.9-1.3-2.9-2.9c0-0.8,0.3-1.5,0.8-2l0,0
			c0.5-0.5,1.2-0.8,2-0.8C30.6,0.1,31.9,1.4,31.9,3"/>
		<path class="st3" d="M3.3,31.3l-1.3,0c-0.3-0.6-0.8-1.1-1.4-1.4l0-1.3C2,28.8,3.1,29.9,3.3,31.3"/>
		<path class="st0" d="M2,31.3L2,31.3l-2,0.7l0.6-1.9v-0.2C1.2,30.2,1.7,30.7,2,31.3"/>
		<polygon class="st0" points="27,10.4 27,15.4 21.1,21.2 21.1,16.3 		"/>
	</g>
	<g>
		<defs>
			<path id="SVGID_00000050656603881489204330000005646938174417582733_" d="M0.6,27.2v1.4c1.4,0.1,2.6,1.2,2.7,2.6h1.5l17.6-17.6
				l-4.1-4.1L0.6,27.2z"/>
		</defs>
		<clipPath id="SVGID_00000151501721741818601420000012860349941034130587_">
			<use xlink:href="#SVGID_00000050656603881489204330000005646938174417582733_"  style="overflow:visible;"/>
		</clipPath>
		<path style="clip-path:url(#SVGID_00000151501721741818601420000012860349941034130587_);fill:#F06724;" d="M3.7,31.8L3.7,31.8
			c-0.1-0.1-0.1-0.3,0-0.4l3.2-3.2c0.1-0.1,0.3-0.1,0.4,0c0.1,0.1,0.1,0.3,0,0.4l-3.2,3.2C4,31.9,3.8,31.9,3.7,31.8"/>
		<path style="clip-path:url(#SVGID_00000151501721741818601420000012860349941034130587_);fill:#085097;" d="M7.8,27.7L7.8,27.7
			c-0.1-0.1-0.1-0.3,0-0.4l4.9-4.9c0.1-0.1,0.3-0.1,0.4,0c0.1,0.1,0.1,0.3,0,0.4l-4.9,4.9C8.1,27.8,7.9,27.8,7.8,27.7"/>
		<path style="clip-path:url(#SVGID_00000151501721741818601420000012860349941034130587_);fill:#F06724;" d="M13.7,21.8L13.7,21.8
			c-0.1-0.1-0.1-0.3,0-0.4l2.1-2.1c0.1-0.1,0.3-0.1,0.4,0c0.1,0.1,0.1,0.3,0,0.4L14,21.8C13.9,21.9,13.8,21.9,13.7,21.8"/>
		<path style="clip-path:url(#SVGID_00000151501721741818601420000012860349941034130587_);fill:#085097;" d="M16.6,18.9L16.6,18.9
			c-0.1-0.1-0.1-0.3,0-0.4l3.4-3.4c0.1-0.1,0.3-0.1,0.4,0c0.1,0.1,0.1,0.3,0,0.4L17,18.9C16.9,19,16.7,19,16.6,18.9"/>
		<path style="clip-path:url(#SVGID_00000151501721741818601420000012860349941034130587_);fill:#085097;" d="M3,31L3,31
			c-0.1-0.1-0.1-0.3,0-0.4L8.6,25c0.1-0.1,0.3-0.1,0.4,0c0.1,0.1,0.1,0.3,0,0.4L3.3,31C3.2,31.1,3.1,31.1,3,31"/>
		<path style="clip-path:url(#SVGID_00000151501721741818601420000012860349941034130587_);fill:#F06724;" d="M9.5,24.4L9.5,24.4
			c-0.1-0.1-0.1-0.3,0-0.4l1.7-1.7c0.1-0.1,0.3-0.1,0.4,0c0.1,0.1,0.1,0.3,0,0.4l-1.7,1.7C9.8,24.5,9.6,24.5,9.5,24.4"/>
		<path style="clip-path:url(#SVGID_00000151501721741818601420000012860349941034130587_);fill:#085097;" d="M12.1,21.9L12.1,21.9
			c-0.1-0.1-0.1-0.3,0-0.4l1.9-1.9c0.1-0.1,0.3-0.1,0.4,0c0.1,0.1,0.1,0.3,0,0.4l-1.9,1.9C12.4,22,12.2,22,12.1,21.9"/>
		<path style="clip-path:url(#SVGID_00000151501721741818601420000012860349941034130587_);fill:#085097;" d="M14.8,19.1L14.8,19.1
			c-0.1-0.1-0.1-0.3,0-0.4l0.2-0.2c0.1-0.1,0.3-0.1,0.3,0l0,0c0.1,0.1,0.1,0.3,0,0.3l-0.2,0.2C15.1,19.2,14.9,19.2,14.8,19.1"/>
		<path style="clip-path:url(#SVGID_00000151501721741818601420000012860349941034130587_);fill:#F06724;" d="M2.2,30.2L2.2,30.2
			c-0.1-0.1-0.1-0.3,0-0.4l1.3-1.3c0.1-0.1,0.3-0.1,0.4,0c0.1,0.1,0.1,0.3,0,0.4l-1.3,1.3C2.4,30.3,2.3,30.3,2.2,30.2"/>
		<path style="clip-path:url(#SVGID_00000151501721741818601420000012860349941034130587_);fill:#085097;" d="M4.4,28L4.4,28
			c-0.1-0.1-0.1-0.3,0-0.4l3.4-3.4c0.1-0.1,0.3-0.1,0.4,0c0.1,0.1,0.1,0.3,0,0.4L4.7,28C4.6,28.1,4.5,28.1,4.4,28"/>
		<path style="clip-path:url(#SVGID_00000151501721741818601420000012860349941034130587_);fill:#F06724;" d="M8.7,23.7L8.7,23.7
			c-0.1-0.1-0.1-0.3,0-0.4l8.2-8.2c0.1-0.1,0.3-0.1,0.4,0c0.1,0.1,0.1,0.3,0,0.4L9,23.7C8.9,23.8,8.8,23.8,8.7,23.7"/>
		<path style="clip-path:url(#SVGID_00000151501721741818601420000012860349941034130587_);fill:#085097;" d="M1.5,29.5L1.5,29.5
			c-0.1-0.1-0.1-0.3,0-0.4l4-4c0.1-0.1,0.3-0.1,0.4,0s0.1,0.3,0,0.4l-4,4C1.8,29.6,1.6,29.6,1.5,29.5"/>
		<path style="clip-path:url(#SVGID_00000151501721741818601420000012860349941034130587_);fill:#F06724;" d="M6.4,24.6L6.4,24.6
			c-0.1-0.1-0.1-0.3,0-0.4l1.4-1.4c0.1-0.1,0.3-0.1,0.4,0c0.1,0.1,0.1,0.3,0,0.4l-1.4,1.4C6.7,24.7,6.5,24.7,6.4,24.6"/>
		<path style="clip-path:url(#SVGID_00000151501721741818601420000012860349941034130587_);fill:#085097;" d="M8.8,22.2L8.8,22.2
			c-0.1-0.1-0.1-0.3,0-0.4l2.4-2.4c0.1-0.1,0.3-0.1,0.4,0c0.1,0.1,0.1,0.3,0,0.4l-2.4,2.4C9,22.3,8.9,22.3,8.8,22.2"/>
		<path style="clip-path:url(#SVGID_00000151501721741818601420000012860349941034130587_);fill:#085097;" d="M12.1,19L12.1,19
			c-0.1-0.1-0.1-0.3,0-0.4l2.5-2.5c0.1-0.1,0.3-0.1,0.4,0c0.1,0.1,0.1,0.3,0,0.4L12.4,19C12.3,19.1,12.2,19.1,12.1,19"/>
		<path style="clip-path:url(#SVGID_00000151501721741818601420000012860349941034130587_);fill:#F06724;" d="M0.7,28.8L0.7,28.8
			c-0.1-0.1-0.1-0.3,0-0.4l2.5-2.5c0.1-0.1,0.3-0.1,0.4,0c0.1,0.1,0.1,0.3,0,0.4l-2.5,2.5C1,28.9,0.8,28.9,0.7,28.8"/>
		<path style="clip-path:url(#SVGID_00000151501721741818601420000012860349941034130587_);fill:#085097;" d="M4.1,25.4L4.1,25.4
			C4,25.3,4,25.1,4.1,25l4.7-4.7c0.1-0.1,0.3-0.1,0.4,0s0.1,0.3,0,0.4l-4.7,4.7C4.4,25.5,4.2,25.5,4.1,25.4"/>
		<path style="clip-path:url(#SVGID_00000151501721741818601420000012860349941034130587_);fill:#085097;" d="M9.8,19.7L9.8,19.7
			c-0.1-0.1-0.1-0.3,0-0.4l1.3-1.3c0.1-0.1,0.3-0.1,0.4,0c0.1,0.1,0.1,0.3,0,0.4l-1.3,1.3C10.1,19.8,9.9,19.8,9.8,19.7"/>
		<path style="clip-path:url(#SVGID_00000151501721741818601420000012860349941034130587_);fill:#F06724;" d="M12,17.5L12,17.5
			c-0.1-0.1-0.1-0.3,0-0.4l2.5-2.5c0.1-0.1,0.3-0.1,0.4,0c0.1,0.1,0.1,0.3,0,0.4l-2.5,2.5C12.2,17.6,12.1,17.6,12,17.5"/>
		<path style="clip-path:url(#SVGID_00000151501721741818601420000012860349941034130587_);fill:#085097;" d="M15.4,14.1L15.4,14.1
			c-0.1-0.1-0.1-0.3,0-0.4l3.1-3.1c0.1-0.1,0.3-0.1,0.4,0c0.1,0.1,0.1,0.3,0,0.4l-3.1,3.1C15.6,14.2,15.5,14.2,15.4,14.1"/>
		<path style="clip-path:url(#SVGID_00000151501721741818601420000012860349941034130587_);fill:#085097;" d="M0.1,28.1L0.1,28.1
			C0,28,0,27.8,0.1,27.7l7.1-7.1c0.1-0.1,0.3-0.1,0.4,0c0.1,0.1,0.1,0.3,0,0.4l-7.1,7.1C0.3,28.2,0.2,28.2,0.1,28.1"/>
		<path style="clip-path:url(#SVGID_00000151501721741818601420000012860349941034130587_);fill:#F06724;" d="M8,20.1L8,20.1
			c-0.1-0.1-0.1-0.3,0-0.4l2.8-2.8c0.1-0.1,0.3-0.1,0.4,0c0.1,0.1,0.1,0.3,0,0.4l-2.8,2.8C8.3,20.2,8.1,20.2,8,20.1"/>
		<path style="clip-path:url(#SVGID_00000151501721741818601420000012860349941034130587_);fill:#085097;" d="M11.8,16.4L11.8,16.4
			c-0.1-0.1-0.1-0.3,0-0.4l3.8-3.8c0.1-0.1,0.3-0.1,0.4,0c0.1,0.1,0.1,0.3,0,0.4l-3.8,3.8C12,16.5,11.9,16.5,11.8,16.4"/>
	</g>
	<g>
		<defs>
			<path id="SVGID_00000021831118813771310690000009985657524691191445_" d="M21.6,8.4c-0.3,0.3-0.3,0.8,0,1.1l1.3,1.3
				c0.1,0.1,0.2,0.1,0.3,0c0.3-0.3,0.3-0.8,0-1.1l-1.3-1.3c0,0-0.1-0.1-0.2-0.1C21.7,8.3,21.6,8.3,21.6,8.4"/>
		</defs>
		<clipPath id="SVGID_00000080184136606475965140000012863452596327174068_">
			<use xlink:href="#SVGID_00000021831118813771310690000009985657524691191445_"  style="overflow:visible;"/>
		</clipPath>
		<path style="clip-path:url(#SVGID_00000080184136606475965140000012863452596327174068_);fill:#FFFFFF;" d="M23.3,10.7
			c-0.1,0.1-0.3,0.1-0.4,0l-1.5-1.3c-0.4-0.3-0.4-0.8,0-1.1c0.1,0,0.1-0.1,0.2-0.1c0.1,0,0.1,0,0.2,0.1l1.5,1.3
			C23.7,9.9,23.7,10.4,23.3,10.7"/>
		
			<line style="clip-path:url(#SVGID_00000080184136606475965140000012863452596327174068_);fill:#FFFFFF;" x1="23.6" y1="9.2" x2="23.6" y2="11"/>
		
			<line style="clip-path:url(#SVGID_00000080184136606475965140000012863452596327174068_);fill:none;stroke:#085097;stroke-width:0.1562;stroke-miterlimit:10;" x1="23.6" y1="9.2" x2="23.6" y2="11"/>
		
			<line style="clip-path:url(#SVGID_00000080184136606475965140000012863452596327174068_);fill:#FFFFFF;" x1="23.3" y1="9.2" x2="23.3" y2="11"/>
		
			<line style="clip-path:url(#SVGID_00000080184136606475965140000012863452596327174068_);fill:none;stroke:#085097;stroke-width:0.1562;stroke-miterlimit:10;" x1="23.3" y1="9.2" x2="23.3" y2="11"/>
		
			<line style="clip-path:url(#SVGID_00000080184136606475965140000012863452596327174068_);fill:#FFFFFF;" x1="23" y1="9.1" x2="23" y2="10.9"/>
		
			<line style="clip-path:url(#SVGID_00000080184136606475965140000012863452596327174068_);fill:none;stroke:#F06724;stroke-width:0.1562;stroke-miterlimit:10;" x1="23" y1="9.1" x2="23" y2="10.9"/>
		
			<line style="clip-path:url(#SVGID_00000080184136606475965140000012863452596327174068_);fill:#FFFFFF;" x1="22.7" y1="8.9" x2="22.7" y2="10.7"/>
		
			<line style="clip-path:url(#SVGID_00000080184136606475965140000012863452596327174068_);fill:none;stroke:#085097;stroke-width:0.1562;stroke-miterlimit:10;" x1="22.7" y1="8.9" x2="22.7" y2="10.7"/>
		
			<line style="clip-path:url(#SVGID_00000080184136606475965140000012863452596327174068_);fill:#FFFFFF;" x1="22.4" y1="8.8" x2="22.4" y2="10.6"/>
		
			<line style="clip-path:url(#SVGID_00000080184136606475965140000012863452596327174068_);fill:none;stroke:#F06724;stroke-width:0.1562;stroke-miterlimit:10;" x1="22.4" y1="8.8" x2="22.4" y2="10.6"/>
		
			<line style="clip-path:url(#SVGID_00000080184136606475965140000012863452596327174068_);fill:#FFFFFF;" x1="22.1" y1="8.4" x2="22.1" y2="10.3"/>
		
			<line style="clip-path:url(#SVGID_00000080184136606475965140000012863452596327174068_);fill:none;stroke:#085097;stroke-width:0.1562;stroke-miterlimit:10;" x1="22.1" y1="8.4" x2="22.1" y2="10.3"/>
		
			<line style="clip-path:url(#SVGID_00000080184136606475965140000012863452596327174068_);fill:#FFFFFF;" x1="21.8" y1="8" x2="21.8" y2="9.9"/>
		
			<line style="clip-path:url(#SVGID_00000080184136606475965140000012863452596327174068_);fill:none;stroke:#F06724;stroke-width:0.1562;stroke-miterlimit:10;" x1="21.8" y1="8" x2="21.8" y2="9.9"/>
		
			<line style="clip-path:url(#SVGID_00000080184136606475965140000012863452596327174068_);fill:#FFFFFF;" x1="21.5" y1="8.2" x2="21.5" y2="10.1"/>
		
			<line style="clip-path:url(#SVGID_00000080184136606475965140000012863452596327174068_);fill:none;stroke:#085097;stroke-width:0.1562;stroke-miterlimit:10;" x1="21.5" y1="8.2" x2="21.5" y2="10.1"/>
		
			<line style="clip-path:url(#SVGID_00000080184136606475965140000012863452596327174068_);fill:#FFFFFF;" x1="21.2" y1="8.3" x2="21.2" y2="10.1"/>
		
			<line style="clip-path:url(#SVGID_00000080184136606475965140000012863452596327174068_);fill:none;stroke:#085097;stroke-width:0.1562;stroke-miterlimit:10;" x1="21.2" y1="8.3" x2="21.2" y2="10.1"/>
	</g>
</g>
</svg>
